<?xml version="1.0" encoding="utf-8"?>
<!-- Generated by IcoMoon.io -->
<!DOCTYPE svg PUBLIC "-//W3C//DTD SVG 1.1//EN" "http://www.w3.org/Graphics/SVG/1.1/DTD/svg11.dtd">
<svg version="1.1" xmlns="http://www.w3.org/2000/svg" xmlns:xlink="http://www.w3.org/1999/xlink" width="32" height="32" viewBox="0 0 32 32">
<path fill="#767d7c" d="M27.793 16.077c0-0.815 0.66-1.473 1.473-1.473h1.4c-0.74-7.448-7.024-13.267-14.667-13.267-7.644 0-13.927 5.819-14.667 13.267h1.4c0.815 0 1.475 0.66 1.475 1.473s-0.66 1.475-1.475 1.475h-1.4c0.692 6.963 6.228 12.5 13.193 13.192v-1.339c0-0.812 0.661-1.472 1.473-1.472s1.473 0.66 1.473 1.472v1.339c6.964-0.692 12.5-6.228 13.193-13.192h-1.4c-0.815 0-1.473-0.661-1.473-1.475v0zM16.737 17.355c-1.485 0.86-5.944 3.433-5.944 3.433-0.704 0.405-1.607 0.164-2.013-0.54s-0.167-1.608 0.539-2.015l5.208-3.005v-10.944c0-0.813 0.661-1.473 1.473-1.473s1.473 0.661 1.473 1.473v11.793c0 0.545-0.296 1.021-0.736 1.277z"></path>
</svg>
