<?xml version="1.0" encoding="utf-8"?>
<!-- Generated by IcoMoon.io -->
<!DOCTYPE svg PUBLIC "-//W3C//DTD SVG 1.1//EN" "http://www.w3.org/Graphics/SVG/1.1/DTD/svg11.dtd">
<svg version="1.1" xmlns="http://www.w3.org/2000/svg" xmlns:xlink="http://www.w3.org/1999/xlink" width="32" height="32" viewBox="0 0 32 32">
<path fill="#ffffff" d="M23.325 30.799v-13.617h4.972l0.203-4.892h-5.176v-3.588c0-0.679 0.116-1.215 0.345-1.609 0.232-0.395 0.78-0.577 1.649-0.551h3.059l0.123-4.565c-0.381-0.056-0.767-0.088-1.163-0.103-0.391-0.013-0.751-0.033-1.079-0.060-0.38-0.028-0.761-0.041-1.14-0.041-1.196-0.081-2.221 0.048-3.080 0.388-0.856 0.339-1.561 0.815-2.119 1.425-0.556 0.612-0.972 1.312-1.243 2.1-0.273 0.788-0.409 1.591-0.409 2.405v4.199h-3.505v4.892h3.505v13.616l5.057 0.001z"></path>
</svg>
