<?xml version="1.0" encoding="utf-8"?>
<!-- Generated by IcoMoon.io -->
<!DOCTYPE svg PUBLIC "-//W3C//DTD SVG 1.1//EN" "http://www.w3.org/Graphics/SVG/1.1/DTD/svg11.dtd">
<svg version="1.1" xmlns="http://www.w3.org/2000/svg" xmlns:xlink="http://www.w3.org/1999/xlink" width="32" height="32" viewBox="0 0 32 32">
<path fill="#767d7c" d="M10.784 9.789c-0.7 1.461-1.153 3.021-0.868 4.624 0.237 1.343 0.797 2.628 1.177 3.951 0.379 1.313 0.795 2.631 1.040 3.972 0.395 2.176 0.535 4.411 1.024 6.564 0.711 3.137 2.924 3.772 5.817 2.453 0.74-0.34 1.085-0.977 1.255-1.74 0.264-1.187-0.079-2.279-0.628-3.283-0.917-1.677-1.904-3.321-2.919-4.944-0.744-1.192-1.211-2.453-1.247-3.853-0.025-0.835-0.008-1.672 0.011-2.513 0.001-0.127 0.016-1.279 0.303-1.561 0.465-0.461 1.197-0.715 2.192-0.713 0.471 0.012 2.431 0.004 2.853-0.235 2.739-1.544 1.995-5.36 0.305-6.528-2.005-1.38-4.157-1.272-6.279-0.428-1.952 0.779-3.151 2.395-4.037 4.235z"></path>
<path fill="#767d7c" d="M21.784 3.945c0.891-1.527-0.579-3.939-2.332-3.945-0.807-0.007-1.040 0.175-1.181 1.004-0.24 1.417 0.328 2.601 1.169 3.671 0.172 0.22 0.533 0.347 0.825 0.409 0.905 0.188 1.212-0.616 1.519-1.139z"></path>
<path fill="#767d7c" d="M17.651 2.285c0-0.153 0.016-0.315-0.003-0.468-0.071-0.579-0.833-1.395-1.347-1.413-0.721-0.027-1.036 0.528-1.173 1.071-0.137 0.541-0.132 1.149-0.040 1.704 0.085 0.511 0.495 0.813 1.064 0.813 0.931 0.009 1.531-0.665 1.499-1.707z"></path>
<path fill="#767d7c" d="M14.935 4.344c0.205-0.692-0.355-1.724-1.056-1.931-0.375-0.113-0.993 0.289-1.127 0.84-0.097 0.413-0.097 0.871-0.043 1.296 0.061 0.52 0.389 0.833 0.92 0.795 0.611 0.003 1.129-0.401 1.305-1z"></path>
<path fill="#767d7c" d="M9.705 6.8c-0.237 0.396-0.348 0.944-0.309 1.405 0.045 0.5 0.48 0.683 1 0.573 0.953-0.195 1.187-0.9 0.599-1.853 1.315 0.212 1.944-0.251 1.841-1.348-0.049-0.487-0.68-1.159-1.133-1.137-0.544 0.017-0.871 0.384-0.929 0.884-0.049 0.467 0.040 0.945 0.067 1.421-0.393-0.201-0.887-0.363-1.135 0.055z"></path>
</svg>
