<?xml version="1.0" encoding="utf-8"?>
<!-- Generated by IcoMoon.io -->
<!DOCTYPE svg PUBLIC "-//W3C//DTD SVG 1.1//EN" "http://www.w3.org/Graphics/SVG/1.1/DTD/svg11.dtd">
<svg version="1.1" xmlns="http://www.w3.org/2000/svg" xmlns:xlink="http://www.w3.org/1999/xlink" width="32" height="32" viewBox="0 0 32 32">
<path d="M15.448 24.24c-0.467-0.507-0.967-1-1.5-1.479s-1.033-0.892-1.5-1.24c-0.467-0.347-0.852-0.725-1.156-1.136-0.305-0.409-0.459-0.823-0.459-1.24 0-0.5 0.159-0.972 0.479-1.417 0.319-0.445 0.708-0.871 1.167-1.281 0.459-0.409 0.915-0.857 1.364-1.344 0.451-0.485 0.837-1.133 1.156-1.937 0.32-0.805 0.479-1.715 0.479-2.729 0-1.013-0.184-2.024-0.552-3.031-0.367-1.007-0.892-1.829-1.573-2.469-0.081-0.081-0.177-0.157-0.289-0.228-0.112-0.069-0.199-0.121-0.26-0.156-0.063-0.033-0.133-0.1-0.208-0.197-0.076-0.097-0.151-0.216-0.22-0.355h2.812l2.813-1.333h-9.104c-1.917 0-3.615 0.268-5.093 0.803s-2.748 1.461-3.803 2.781v9.708c1.429 1.639 3.325 2.459 5.688 2.459 0.444 0 0.929-0.035 1.459-0.104-0.292 0.848-0.437 1.444-0.437 1.792 0 0.929 0.437 1.965 1.312 3.104-3.251 0.096-5.925 0.685-8.021 1.769v3.304c0-0.435 0.473-0.888 0.797-1.261 1.315-1.516 3.293-2.157 5.224-2.417 0.721-0.097 1.467-0.145 2.229-0.145 0.445 0 0.785 0.013 1.021 0.041 0.084 0.056 0.295 0.2 0.636 0.437 0.34 0.236 0.568 0.396 0.685 0.48s0.333 0.244 0.645 0.479 0.533 0.415 0.667 0.531c0.133 0.119 0.323 0.296 0.573 0.531s0.435 0.441 0.552 0.615 0.263 0.385 0.437 0.636 0.295 0.489 0.364 0.719c0.069 0.229 0.136 0.479 0.197 0.751s0.093 0.552 0.093 0.844c0 0.528-0.071 1.479-0.208 1.479h2.333c0.541-1.333 0.812-2.104 0.812-3.271 0-0.917-0.153-1.767-0.459-2.552-0.303-0.785-0.688-1.431-1.153-1.937zM7.792 17.167c-0.708 0-1.383-0.18-2.021-0.541s-1.181-0.831-1.625-1.407c-0.445-0.576-0.833-1.225-1.167-1.948-0.333-0.721-0.58-1.445-0.739-2.167-0.159-0.723-0.24-1.409-0.24-2.063 0-1.333 0.357-2.479 1.073-3.437 0.715-0.959 1.719-1.437 3.011-1.437 0.917 0 1.743 0.284 2.479 0.855 0.736 0.569 1.319 1.292 1.751 2.167 0.429 0.875 0.756 1.779 0.979 2.708 0.221 0.929 0.333 1.819 0.333 2.667 0 1.388-0.303 2.503-0.907 3.344-0.604 0.84-1.58 1.26-2.927 1.26z"></path>
<path d="M26.667 2.667h-2.667v5.333h-5.333v2.667h5.333v5.333h2.667v-5.333h5.333v-2.667h-5.333z"></path>
</svg>
