<?xml version="1.0" encoding="utf-8"?>
<!-- Generated by IcoMoon.io -->
<!DOCTYPE svg PUBLIC "-//W3C//DTD SVG 1.1//EN" "http://www.w3.org/Graphics/SVG/1.1/DTD/svg11.dtd">
<svg version="1.1" xmlns="http://www.w3.org/2000/svg" xmlns:xlink="http://www.w3.org/1999/xlink" width="32" height="32" viewBox="0 0 32 32">
<path d="M20.033 18.141c0 0.445-0.361 0.807-0.807 0.807s-0.807-0.361-0.807-0.807c0-0.445 0.361-0.807 0.807-0.807s0.807 0.361 0.807 0.807z"></path>
<path d="M24.565 9.813c0.14-0.172 0.396-0.196 0.568-0.055s0.196 0.395 0.057 0.567c-0.035 0.043-0.716 0.924 0.015 1.929 0 0.001 0.001 0.003 0.003 0.004 0.337 0.483 0.671 0.963 0.98 1.449 1.431-1.896 2.113-3.759 1.869-5.128-0.097-0.559-0.343-0.988-0.692-1.208-0.631-0.399-2.031 0.159-3.84 1.528-1.5 1.133-2.783 2.437-2.795 2.449-0.157 0.159-0.413 0.161-0.572 0.004-0.159-0.155-0.163-0.411-0.007-0.569 0.016-0.017 0.143-0.147 0.357-0.353-1.4-0.508-2.916-0.765-4.513-0.765-1.596 0-3.109 0.257-4.511 0.765 0.213 0.205 0.344 0.336 0.36 0.353 0.157 0.16 0.153 0.416-0.004 0.571-0.16 0.157-0.417 0.153-0.571-0.004-0.013-0.013-1.297-1.317-2.795-2.449-1.812-1.371-3.212-1.928-3.841-1.529-0.348 0.221-0.596 0.649-0.692 1.209-0.241 1.368 0.44 3.228 1.868 5.125 0.309-0.487 0.64-0.968 0.979-1.447 0 0 0.003-0.003 0.003-0.004 0.733-1.009 0.043-1.893 0.013-1.929-0.14-0.173-0.115-0.427 0.055-0.568 0.173-0.143 0.429-0.117 0.569 0.055 0.391 0.475 0.897 1.697 0.019 2.915-1.451 2.055-2.751 4.111-2.751 6.627 0 1.644 0.917 3.152 2.727 4.477 1.328 0.973 2.86 1.644 4.085 2.077-0.237-0.404-0.357-0.843-0.357-1.307 0-0.14 0.008-0.299 0.023-0.467 0.017-0.181 0.040-0.376 0.073-0.579-0.447 0.285-0.965 0.439-1.507 0.439-0.755 0-1.464-0.295-1.999-0.828-0.532-0.535-0.827-1.243-0.827-1.997 0-0.753 0.295-1.465 0.827-1.999l3.028-3.028c0.533-0.532 1.243-0.828 1.999-0.828 0.753 0 1.463 0.295 1.996 0.828 0.647 0.645 0.94 1.569 0.789 2.469-0.008 0.040-0.020 0.080-0.037 0.115-0.1 0.289-0.432 1.093-1.18 1.843l-1.972 1.971c-0.151 0.349-0.26 0.787-0.328 1.205-0.049 0.309-0.076 0.609-0.076 0.856 0 1.047 1.124 1.737 1.896 2.132 0.704 0.359 0.809 0.565 2.143 0.645v-0.791c-1.333-0.161-2.221-0.992-2.221-1.988 0-0.573 0.177-1.023 0.705-1.297 0.404-0.212 0.895-0.317 1.564-0.317 0.671 0 1.188 0.105 1.589 0.317 0.527 0.275 0.593 0.724 0.593 1.297 0 0.996-0.899 1.827-2.232 1.988v0.791c1.333-0.081 1.437-0.287 2.141-0.647 0.772-0.395 1.792-1.084 1.792-2.132 0-0.1 0.048-0.207 0.037-0.32-0.039-0.549-0.147-1.239-0.365-1.741l-1.961-1.971c-0.696-0.697-1.044-1.515-1.164-1.828-0.023-0.037-0.036-0.084-0.044-0.129-0.151-0.9 0.145-1.823 0.789-2.469 0.535-0.532 1.244-0.828 1.997-0.828 0.755 0 1.467 0.295 2.001 0.828l3.025 3.028c0.533 0.533 0.831 1.245 0.831 1.999 0 0.755-0.297 1.463-0.831 1.997-0.532 0.533-1.243 0.828-1.997 0.828-0.54 0-1.059-0.153-1.507-0.439 0.064 0.385 0.095 0.752 0.095 1.044 0 0.025-0.135 0.924-0.356 1.307 1.227-0.432 2.756-1.103 4.085-2.077 1.808-1.325 2.727-2.833 2.725-4.477 0-2.517-1.3-4.572-2.749-6.627-0.876-1.215-0.369-2.437 0.021-2.912z"></path>
<path d="M16 0c-8.836 0-16 7.164-16 16 0 8.837 7.164 16 16 16s16-7.163 16-16c0-8.836-7.164-16-16-16zM25.048 24.483c-2.033 1.491-4.492 2.303-5.776 2.651-0.007 0-0.011 0.001-0.019 0.003-0.167 0.111-0.348 0.216-0.544 0.316-1.053 0.536-2.22 0.78-2.712 0.78s-1.66-0.244-2.715-0.78c-0.195-0.1-0.375-0.205-0.544-0.316-0.007-0.001-0.011-0.003-0.015-0.003-1.284-0.349-3.744-1.16-5.777-2.651-2.029-1.488-3.057-3.212-3.057-5.129 0-1.844 0.615-3.427 1.48-4.924-0.028-0.020-0.057-0.047-0.080-0.077-2.256-2.912-2.311-4.955-2.143-5.911 0.139-0.787 0.512-1.408 1.056-1.751 0.985-0.624 2.545-0.109 4.767 1.571 0.708 0.535 1.36 1.097 1.863 1.556 1.593-0.636 3.331-0.959 5.167-0.959s3.572 0.324 5.167 0.96c0.505-0.459 1.157-1.023 1.865-1.557 2.219-1.681 3.78-2.195 4.767-1.572 0.541 0.344 0.917 0.965 1.055 1.751 0.169 0.956 0.115 2.999-2.141 5.912-0.027 0.032-0.053 0.056-0.084 0.080 0.865 1.496 1.479 3.079 1.479 4.921 0 1.917-1.028 3.641-3.057 5.129z"></path>
<path d="M13.576 18.143c0 0.445-0.361 0.807-0.807 0.807s-0.807-0.361-0.807-0.807c0-0.445 0.361-0.807 0.807-0.807s0.807 0.361 0.807 0.807z"></path>
</svg>
