<?xml version="1.0" encoding="utf-8"?>
<!-- Generated by IcoMoon.io -->
<!DOCTYPE svg PUBLIC "-//W3C//DTD SVG 1.1//EN" "http://www.w3.org/Graphics/SVG/1.1/DTD/svg11.dtd">
<svg version="1.1" xmlns="http://www.w3.org/2000/svg" xmlns:xlink="http://www.w3.org/1999/xlink" width="32" height="32" viewBox="0 0 32 32">
<path fill="#6795B8" d="M25.609 14.66c2.024-2.615 2.073-4.445 1.921-5.304-0.124-0.705-0.461-1.263-0.947-1.571-0.885-0.559-2.285-0.099-4.277 1.409-0.636 0.481-1.22 0.987-1.673 1.397-1.431-0.571-2.988-0.861-4.636-0.861-1.647 0-3.204 0.291-4.635 0.86-0.451-0.411-1.035-0.916-1.671-1.396-1.992-1.508-3.392-1.969-4.276-1.409-0.487 0.307-0.823 0.865-0.947 1.571-0.152 0.859-0.103 2.689 1.921 5.304 0.020 0.028 0.045 0.051 0.072 0.069-0.776 1.343-1.328 2.763-1.328 4.417 0 1.72 0.923 3.267 2.744 4.601 1.824 1.339 4.029 2.065 5.183 2.379 0.004 0 0.008 0.001 0.013 0.003 0.152 0.099 0.315 0.193 0.489 0.283 0.945 0.481 1.993 0.7 2.435 0.7s1.488-0.219 2.433-0.7c0.176-0.089 0.339-0.184 0.488-0.283 0.007-0.001 0.011-0.003 0.016-0.003 1.152-0.313 3.359-1.040 5.183-2.379 1.82-1.335 2.743-2.881 2.743-4.601 0-1.652-0.549-3.073-1.325-4.415 0.025-0.021 0.049-0.043 0.073-0.072zM26.136 19.145c0.001 1.475-0.823 2.828-2.445 4.019-1.193 0.873-2.567 1.475-3.667 1.863 0.199-0.344 0.307-0.713 0.319-1.104 0-0.024 0.001-0.047 0.001-0.071 0-0.26-0.028-0.589-0.085-0.935 0.401 0.255 0.865 0.392 1.352 0.392 0.677 0 1.315-0.263 1.792-0.743 0.479-0.479 0.745-1.115 0.745-1.792s-0.265-1.315-0.745-1.793l-2.715-2.715c-0.479-0.477-1.116-0.743-1.793-0.743s-1.313 0.264-1.793 0.743c-0.577 0.58-0.843 1.408-0.707 2.215 0.007 0.041 0.023 0.083 0.041 0.116 0.107 0.281 0.425 1.013 1.051 1.639l1.769 1.768c0.196 0.451 0.316 1.069 0.352 1.561 0.008 0.101 0.011 0.197 0.011 0.287 0 0.94-0.824 1.56-1.517 1.915-0.633 0.323-1.305 0.507-1.741 0.581v-0.711c1.025-0.143 1.811-0.889 1.811-1.784 0-0.513-0.251-0.916-0.724-1.163-0.361-0.191-0.848-0.285-1.448-0.285s-1.087 0.095-1.448 0.285c-0.473 0.248-0.724 0.649-0.724 1.163 0 0.895 0.784 1.64 1.811 1.784v0.711c-0.435-0.075-1.109-0.257-1.743-0.581-0.692-0.355-1.517-0.973-1.517-1.915 0-0.22 0.023-0.488 0.067-0.767 0.060-0.376 0.16-0.768 0.296-1.081l1.769-1.768c0.671-0.671 0.968-1.393 1.059-1.653 0.016-0.029 0.027-0.065 0.033-0.101 0.136-0.807-0.128-1.636-0.707-2.215-0.479-0.477-1.115-0.743-1.792-0.743s-1.313 0.264-1.793 0.743l-2.716 2.716c-0.479 0.477-0.743 1.116-0.743 1.793s0.264 1.312 0.743 1.792c0.479 0.479 1.115 0.743 1.792 0.743 0.487 0 0.952-0.137 1.352-0.392-0.029 0.18-0.052 0.356-0.065 0.519-0.012 0.148-0.019 0.291-0.019 0.416 0 0.417 0.108 0.812 0.319 1.175-1.1-0.388-2.473-0.989-3.665-1.863-1.624-1.191-2.447-2.543-2.447-4.019 0-2.257 1.167-4.101 2.467-5.944 0.789-1.093 0.336-2.189-0.015-2.616-0.127-0.153-0.356-0.176-0.511-0.051-0.155 0.128-0.177 0.355-0.051 0.511 0.027 0.032 0.645 0.825-0.012 1.731 0 0.001-0.001 0.003-0.003 0.004-0.304 0.431-0.6 0.861-0.879 1.299-1.28-1.703-1.891-3.371-1.675-4.599 0.088-0.501 0.308-0.887 0.621-1.084 0.565-0.359 1.821 0.141 3.447 1.371 1.344 1.016 2.495 2.187 2.507 2.197 0.139 0.143 0.368 0.145 0.512 0.004 0.141-0.139 0.144-0.368 0.005-0.511-0.015-0.016-0.131-0.133-0.323-0.317 1.256-0.455 2.615-0.687 4.047-0.687 1.433 0 2.792 0.231 4.049 0.687-0.192 0.185-0.305 0.301-0.32 0.317-0.14 0.143-0.137 0.372 0.005 0.511 0.143 0.14 0.371 0.139 0.513-0.004 0.011-0.012 1.161-1.181 2.507-2.197 1.624-1.228 2.88-1.728 3.445-1.371 0.312 0.197 0.532 0.583 0.621 1.084 0.217 1.228-0.395 2.899-1.679 4.601-0.277-0.437-0.577-0.868-0.879-1.301-0.001 0-0.003-0.003-0.003-0.004-0.655-0.901-0.044-1.693-0.013-1.731 0.125-0.155 0.103-0.381-0.052-0.508-0.153-0.127-0.383-0.105-0.509 0.049-0.351 0.427-0.805 1.523-0.015 2.613 1.299 1.843 2.465 3.687 2.465 5.944zM19.619 18.060c0 0.4-0.324 0.723-0.725 0.723-0.399 0-0.723-0.323-0.723-0.723 0-0.401 0.324-0.724 0.723-0.724 0.401 0 0.725 0.323 0.725 0.724zM12.377 18.060c0-0.401 0.325-0.724 0.724-0.724s0.724 0.323 0.724 0.724c0 0.4-0.325 0.723-0.724 0.723s-0.724-0.323-0.724-0.723z"></path>
<path fill="#6795B8" d="M16 2c7.72 0 14 6.28 14 14s-6.28 14-14 14c-7.72 0-14-6.28-14-14s6.28-14 14-14zM16 0c-8.836 0-16 7.164-16 16 0 8.837 7.164 16 16 16s16-7.163 16-16c0-8.836-7.164-16-16-16v0z"></path>
</svg>
