<svg width="47.99999999999999" height="306" xmlns="http://www.w3.org/2000/svg">

 <g>
  <title>background</title>
  <rect fill="none" id="canvas_background" height="308" width="50" y="-1" x="-1"/>
 </g>
 <g>
  <title>Layer 1</title>
  <g id="svg_2">
   <svg fill="#ffffff" y="51.332993" x="6.999001" viewBox="0 0 32 32" height="32" width="32" id="svg_1">
    <path fill="#ffffff" id="svg_25" d="m15.448,24.24c-0.467,-0.507 -0.967,-1 -1.5,-1.479s-1.033,-0.892 -1.5,-1.24c-0.467,-0.347 -0.852,-0.725 -1.156,-1.136c-0.305,-0.409 -0.459,-0.823 -0.459,-1.24c0,-0.5 0.159,-0.972 0.479,-1.417c0.319,-0.445 0.708,-0.871 1.167,-1.281c0.459,-0.409 0.915,-0.857 1.364,-1.344c0.451,-0.485 0.837,-1.133 1.156,-1.937c0.32,-0.805 0.479,-1.715 0.479,-2.729c0,-1.013 -0.184,-2.024 -0.552,-3.031c-0.367,-1.007 -0.892,-1.829 -1.573,-2.469c-0.081,-0.081 -0.177,-0.157 -0.289,-0.228c-0.112,-0.069 -0.199,-0.121 -0.26,-0.156c-0.063,-0.033 -0.133,-0.1 -0.208,-0.197c-0.076,-0.097 -0.151,-0.216 -0.22,-0.355l2.812,0l2.813,-1.333l-9.104,0c-1.917,0 -3.615,0.268 -5.093,0.803s-2.748,1.461 -3.803,2.781l0,9.708c1.429,1.639 3.325,2.459 5.688,2.459c0.444,0 0.929,-0.035 1.459,-0.104c-0.292,0.848 -0.437,1.444 -0.437,1.792c0,0.929 0.437,1.965 1.312,3.104c-3.251,0.096 -5.925,0.685 -8.021,1.769l0,3.304c0,-0.435 0.473,-0.888 0.797,-1.261c1.315,-1.516 3.293,-2.157 5.224,-2.417c0.721,-0.097 1.467,-0.145 2.229,-0.145c0.445,0 0.785,0.013 1.021,0.041c0.084,0.056 0.295,0.2 0.636,0.437c0.34,0.236 0.568,0.396 0.685,0.48s0.333,0.244 0.645,0.479s0.533,0.415 0.667,0.531c0.133,0.119 0.323,0.296 0.573,0.531s0.435,0.441 0.552,0.615s0.263,0.385 0.437,0.636s0.295,0.489 0.364,0.719c0.069,0.229 0.136,0.479 0.197,0.751s0.093,0.552 0.093,0.844c0,0.528 -0.071,1.479 -0.208,1.479l2.333,0c0.541,-1.333 0.812,-2.104 0.812,-3.271c0,-0.917 -0.153,-1.767 -0.459,-2.552c-0.303,-0.785 -0.688,-1.431 -1.153,-1.937l0.001,-0.004zm-7.656,-7.073c-0.708,0 -1.383,-0.18 -2.021,-0.541s-1.181,-0.831 -1.625,-1.407c-0.445,-0.576 -0.833,-1.225 -1.167,-1.948c-0.333,-0.721 -0.58,-1.445 -0.739,-2.167c-0.159,-0.723 -0.24,-1.409 -0.24,-2.063c0,-1.333 0.357,-2.479 1.073,-3.437c0.715,-0.959 1.719,-1.437 3.011,-1.437c0.917,0 1.743,0.284 2.479,0.855c0.736,0.569 1.319,1.292 1.751,2.167c0.429,0.875 0.756,1.779 0.979,2.708c0.221,0.929 0.333,1.819 0.333,2.667c0,1.388 -0.303,2.503 -0.907,3.344c-0.604,0.84 -1.58,1.26 -2.927,1.26l0,-0.001z"/>
    <path fill="#ffffff" id="svg_26" d="m26.667,2.667l-2.667,0l0,5.333l-5.333,0l0,2.667l5.333,0l0,5.333l2.667,0l0,-5.333l5.333,0l0,-2.667l-5.333,0l0,-5.333z"/>
   </svg>
  </g>
  <g id="svg_12">
   <svg fill="#ffffff" y="97.887005" x="11.592644" viewBox="0 0 32 32" height="32" width="32" id="svg_11">
    <path fill="#ffffff" id="svg_35" d="m30.388,6.907c-0.873,0.387 -1.791,0.665 -2.737,0.829c1.004,-0.755 1.751,-1.801 2.135,-3c0.02,-0.057 0,-0.12 -0.047,-0.157c-0.045,-0.037 -0.112,-0.043 -0.164,-0.012c-1.131,0.671 -2.355,1.143 -3.64,1.405c-1.139,-1.181 -2.731,-1.859 -4.376,-1.859c-3.349,0 -6.073,2.724 -6.073,6.073c0,0.405 0.039,0.805 0.117,1.196c-4.639,-0.285 -8.977,-2.513 -11.927,-6.129c-0.029,-0.039 -0.075,-0.059 -0.123,-0.053c-0.048,0.003 -0.091,0.031 -0.113,0.071c-0.539,0.923 -0.824,1.98 -0.824,3.055c0,1.861 0.847,3.603 2.287,4.751c-0.74,-0.089 -1.465,-0.324 -2.119,-0.687c-0.044,-0.025 -0.049,-0.024 -0.093,0.001s-0.024,0.072 -0.024,0.123l0,0.079c0,2.673 1.713,5.02 4.22,5.8c-0.661,0.108 -1.369,0.099 -2.043,-0.028c-0.051,-0.008 -0.115,0.008 -0.148,0.045c-0.033,0.039 -0.052,0.092 -0.036,0.14c0.752,2.347 2.839,3.992 5.269,4.196c-2.028,1.485 -4.427,2.269 -6.959,2.269c-0.468,0 -0.937,-0.028 -1.399,-0.084c-0.065,-0.007 -0.132,0.032 -0.155,0.096c-0.023,0.063 0.001,0.135 0.059,0.171c2.741,1.756 5.909,2.687 9.165,2.687c10.649,0 17.011,-8.648 17.011,-17.012c0,-0.233 -0.004,-0.464 -0.013,-0.695c1.148,-0.84 2.135,-1.868 2.928,-3.059c0.037,-0.053 0.033,-0.124 -0.008,-0.173c-0.043,-0.049 -0.112,-0.065 -0.171,-0.039l0.001,0z"/>
   </svg>
  </g>
  <g id="svg_14">
   <svg fill="#ffffff" y="144.334" x="8.645" viewBox="0 0 32 32" height="32" width="32" id="svg_13">
    <path fill="#ffffff" id="svg_36" d="m18.851,18.273c-0.867,-0.501 -2.072,-0.501 -3.051,-0.501l-3.216,0l0,6.627l2.951,0c1.092,0 2.487,0.077 3.428,-0.584c0.863,-0.583 1.353,-1.727 1.353,-2.812c0,-1.012 -0.6,-2.221 -1.465,-2.729l0,-0.001zm-1.212,-5.654c0.716,-0.545 1.088,-1.517 1.088,-2.411c0,-0.972 -0.451,-1.905 -1.277,-2.409c-0.867,-0.505 -2.448,-0.389 -3.465,-0.389l-1.4,0l0,5.832l1.853,0c1.055,-0.001 2.297,0.077 3.201,-0.623zm-0.236,16.714l-11.048,0l0,-26.667l12.073,0c3.495,0 6.721,2.225 6.721,6.152c0,3.031 -1.695,5.108 -3.852,5.752l0,0.079c3.199,0.661 5.487,2.399 5.487,6.595c0.001,3.881 -2.643,8.089 -9.381,8.089z"/>
   </svg>
  </g>
  <g id="svg_16">
   <svg fill="#ffffff" y="188.667587" x="6.990517" viewBox="0 0 32 32" height="32" width="32" id="svg_15">
    <path fill="#ffffff" id="svg_37" d="m13.209,19.673c-0.707,-0.317 -1.416,-0.544 -2.025,-0.928c-2.02,-1.272 -2.921,-4.115 -2.176,-6.669c0.648,-2.147 2.209,-3.409 4.352,-3.443c1.479,-0.024 2.957,-0.001 4.439,-0.003c2.417,-0.005 3.985,-1.509 4.097,-3.945c0.033,-0.795 -0.016,-1.591 0.025,-2.383c0.032,-0.611 0.421,-0.952 1.019,-0.969c0.603,-0.017 1.057,0.335 1.052,0.923c-0.012,1.417 0.06,2.875 -0.241,4.243c-0.592,2.693 -2.54,4.141 -5.809,4.584c0,0.308 0,0.631 0,0.949c0,5.697 0.001,11.396 -0.003,17.091c0,1.088 -0.369,1.461 -1.405,1.453c-0.956,-0.007 -1.349,-0.381 -1.353,-1.34c-0.009,-2.273 -0.003,-4.547 -0.003,-6.82c0,-0.219 0,-0.435 0,-0.652c-0.047,-0.021 -0.092,-0.04 -0.137,-0.061c-0.115,0.216 -0.239,0.428 -0.341,0.651c-1.088,2.3 -2.168,4.601 -3.259,6.901c-0.549,1.16 -1.713,1.668 -2.944,1.287c-0.591,-0.181 -0.564,-0.595 -0.341,-1.043c0.611,-1.223 1.237,-2.44 1.855,-3.661c0.787,-1.561 2.477,-4.764 3.2,-6.164l-0.002,-0.001zm1.775,-8.456c-1.815,0.156 -2.703,0.041 -3.36,1c-0.792,1.153 -0.571,2.473 0.192,3.645c0.584,0.897 1.609,1.084 3.187,1.163c0.028,-2.501 -0.019,-3.069 -0.019,-5.808z"/>
    <path fill="#ffffff" id="svg_38" d="m18.644,4.465c0.005,1.723 -1.404,3.104 -3.151,3.093c-1.74,-0.009 -3.14,-1.405 -3.131,-3.121c0.008,-1.656 1.42,-3.047 3.116,-3.071c1.716,-0.023 3.164,1.393 3.165,3.099l0.001,0z"/>
   </svg>
  </g>
  <g stroke="null" transform="matrix(0.6770408153533936,0,0,0.7136378288269043,9.235068790859259,42.13145827921835) " id="svg_20">
   <svg fill="#b2b2b2" stroke="null" y="273.378889" x="2.387099" viewBox="0 0 32 32" height="32" width="32" id="svg_19">
    <path fill="#b2b2b2" stroke="null" id="svg_40" d="m27.793,16.077c0,-0.815 0.66,-1.473 1.473,-1.473l1.4,0c-0.74,-7.448 -7.024,-13.267 -14.667,-13.267c-7.644,0 -13.927,5.819 -14.667,13.267l1.4,0c0.815,0 1.475,0.66 1.475,1.473s-0.66,1.475 -1.475,1.475l-1.4,0c0.692,6.963 6.228,12.5 13.193,13.192l0,-1.339c0,-0.812 0.661,-1.472 1.473,-1.472s1.473,0.66 1.473,1.472l0,1.339c6.964,-0.692 12.5,-6.228 13.193,-13.192l-1.4,0c-0.815,0 -1.473,-0.661 -1.473,-1.475l0,0l0.002,0zm-11.056,1.278c-1.485,0.86 -5.944,3.433 -5.944,3.433c-0.704,0.405 -1.607,0.164 -2.013,-0.54s-0.167,-1.608 0.539,-2.015l5.208,-3.005l0,-10.944c0,-0.813 0.661,-1.473 1.473,-1.473s1.473,0.661 1.473,1.473l0,11.793c0,0.545 -0.296,1.021 -0.736,1.277l0,0.001z"/>
   </svg>
  </g>
  <g id="svg_22">
   <svg fill="#ffffff" y="11.250427" x="-0.762" viewBox="0 0 32 32" height="32" width="32" id="svg_21">
    <path fill="#ffffff" id="svg_41" d="m23.325,30.799l0,-13.617l4.972,0l0.203,-4.892l-5.176,0l0,-3.588c0,-0.679 0.116,-1.215 0.345,-1.609c0.232,-0.395 0.78,-0.577 1.649,-0.551l3.059,0l0.123,-4.565c-0.381,-0.056 -0.767,-0.088 -1.163,-0.103c-0.391,-0.013 -0.751,-0.033 -1.079,-0.06c-0.38,-0.028 -0.761,-0.041 -1.14,-0.041c-1.196,-0.081 -2.221,0.048 -3.08,0.388c-0.856,0.339 -1.561,0.815 -2.119,1.425c-0.556,0.612 -0.972,1.312 -1.243,2.1c-0.273,0.788 -0.409,1.591 -0.409,2.405l0,4.199l-3.505,0l0,4.892l3.505,0l0,13.616l5.057,0.001l0.001,0z"/>
   </svg>
  </g>
  <g stroke="null" transform="matrix(0.8407886624336243,0,0,0.7204057574272156,1.7628739487463463,77.69771951250186) " id="svg_24">
   <svg fill="#b2b2b2" stroke="null" y="277.16416" x="6.692027" viewBox="0 0 32 32" height="32" width="32" id="svg_23">
    <path fill="#b2b2b2" stroke="null" id="svg_42" d="m10.784,9.789c-0.7,1.461 -1.153,3.021 -0.868,4.624c0.237,1.343 0.797,2.628 1.177,3.951c0.379,1.313 0.795,2.631 1.04,3.972c0.395,2.176 0.535,4.411 1.024,6.564c0.711,3.137 2.924,3.772 5.817,2.453c0.74,-0.34 1.085,-0.977 1.255,-1.74c0.264,-1.187 -0.079,-2.279 -0.628,-3.283c-0.917,-1.677 -1.904,-3.321 -2.919,-4.944c-0.744,-1.192 -1.211,-2.453 -1.247,-3.853c-0.025,-0.835 -0.008,-1.672 0.011,-2.513c0.001,-0.127 0.016,-1.279 0.303,-1.561c0.465,-0.461 1.197,-0.715 2.192,-0.713c0.471,0.012 2.431,0.004 2.853,-0.235c2.739,-1.544 1.995,-5.36 0.305,-6.528c-2.005,-1.38 -4.157,-1.272 -6.279,-0.428c-1.952,0.779 -3.151,2.395 -4.037,4.235l0.001,-0.001z"/>
    <path fill="#b2b2b2" stroke="null" id="svg_43" d="m21.784,3.945c0.891,-1.527 -0.579,-3.939 -2.332,-3.945c-0.807,-0.007 -1.04,0.175 -1.181,1.004c-0.24,1.417 0.328,2.601 1.169,3.671c0.172,0.22 0.533,0.347 0.825,0.409c0.905,0.188 1.212,-0.616 1.519,-1.139z"/>
    <path fill="#b2b2b2" stroke="null" id="svg_44" d="m17.651,2.285c0,-0.153 0.016,-0.315 -0.003,-0.468c-0.071,-0.579 -0.833,-1.395 -1.347,-1.413c-0.721,-0.027 -1.036,0.528 -1.173,1.071c-0.137,0.541 -0.132,1.149 -0.04,1.704c0.085,0.511 0.495,0.813 1.064,0.813c0.931,0.009 1.531,-0.665 1.499,-1.707z"/>
    <path fill="#b2b2b2" stroke="null" id="svg_45" d="m14.935,4.344c0.205,-0.692 -0.355,-1.724 -1.056,-1.931c-0.375,-0.113 -0.993,0.289 -1.127,0.84c-0.097,0.413 -0.097,0.871 -0.043,1.296c0.061,0.52 0.389,0.833 0.92,0.795c0.611,0.003 1.129,-0.401 1.305,-1l0.001,0z"/>
    <path fill="#b2b2b2" stroke="null" id="svg_46" d="m9.705,6.8c-0.237,0.396 -0.348,0.944 -0.309,1.405c0.045,0.5 0.48,0.683 1,0.573c0.953,-0.195 1.187,-0.9 0.599,-1.853c1.315,0.212 1.944,-0.251 1.841,-1.348c-0.049,-0.487 -0.68,-1.159 -1.133,-1.137c-0.544,0.017 -0.871,0.384 -0.929,0.884c-0.049,0.467 0.04,0.945 0.067,1.421c-0.393,-0.201 -0.887,-0.363 -1.135,0.055l-0.001,0z"/>
   </svg>
  </g>
 </g>
</svg>