<svg width="405" height="45" xmlns="http://www.w3.org/2000/svg">
 <g>
  <title>background</title>
  <rect x="-1" y="-1" width="407" height="47" id="canvas_background" fill="none"/>
 </g>

 <g>
  <title>Layer 1</title>
  <g id="svg_20" transform="matrix(0.5393411637986816,0,0,0.5247521730123772,1.9046263123639875,4.753584423724011) " stroke="null">
   <svg id="svg_1" width="32" height="32" viewBox="0 0 32 32" x="-3.175505" y="18.189199">
    <path d="m27.793,16.077c0,-0.815 0.66,-1.473 1.473,-1.473l1.4,0c-0.74,-7.448 -7.024,-13.267 -14.667,-13.267c-7.644,0 -13.927,5.819 -14.667,13.267l1.4,0c0.815,0 1.475,0.66 1.475,1.473s-0.66,1.475 -1.475,1.475l-1.4,0c0.692,6.963 6.228,12.5 13.193,13.192l0,-1.339c0,-0.812 0.661,-1.472 1.473,-1.472s1.473,0.66 1.473,1.472l0,1.339c6.964,-0.692 12.5,-6.228 13.193,-13.192l-1.4,0c-0.815,0 -1.473,-0.661 -1.473,-1.475l0,0l0.002,0zm-11.056,1.278c-1.485,0.86 -5.944,3.433 -5.944,3.433c-0.704,0.405 -1.607,0.164 -2.013,-0.54s-0.167,-1.608 0.539,-2.015l5.208,-3.005l0,-10.944c0,-0.813 0.661,-1.473 1.473,-1.473s1.473,0.661 1.473,1.473l0,11.793c0,0.545 -0.296,1.021 -0.736,1.277l0,0.001z" id="svg_2" fill="#69747c" stroke="null"/>
   </svg>
  </g>
  <g id="svg_24" transform="matrix(0.6400174255032843,0,0,0.553939213799751,59.512484887449844,3.8106713161657866) " stroke="null">
   <svg id="svg_3" width="32" height="32" viewBox="0 0 32 32" x="505.421895" y="18.3945">
    <path d="m10.784,9.789c-0.7,1.461 -1.153,3.021 -0.868,4.624c0.237,1.343 0.797,2.628 1.177,3.951c0.379,1.313 0.795,2.631 1.04,3.972c0.395,2.176 0.535,4.411 1.024,6.564c0.711,3.137 2.924,3.772 5.817,2.453c0.74,-0.34 1.085,-0.977 1.255,-1.74c0.264,-1.187 -0.079,-2.279 -0.628,-3.283c-0.917,-1.677 -1.904,-3.321 -2.919,-4.944c-0.744,-1.192 -1.211,-2.453 -1.247,-3.853c-0.025,-0.835 -0.008,-1.672 0.011,-2.513c0.001,-0.127 0.016,-1.279 0.303,-1.561c0.465,-0.461 1.197,-0.715 2.192,-0.713c0.471,0.012 2.431,0.004 2.853,-0.235c2.739,-1.544 1.995,-5.36 0.305,-6.528c-2.005,-1.38 -4.157,-1.272 -6.279,-0.428c-1.952,0.779 -3.151,2.395 -4.037,4.235l0.001,-0.001z" id="svg_8" fill="#69747c" stroke="null"/>
    <path d="m21.784,3.945c0.891,-1.527 -0.579,-3.939 -2.332,-3.945c-0.807,-0.007 -1.04,0.175 -1.181,1.004c-0.24,1.417 0.328,2.601 1.169,3.671c0.172,0.22 0.533,0.347 0.825,0.409c0.905,0.188 1.212,-0.616 1.519,-1.139z" id="svg_7" fill="#69747c" stroke="null"/>
    <path d="m17.651,2.285c0,-0.153 0.016,-0.315 -0.003,-0.468c-0.071,-0.579 -0.833,-1.395 -1.347,-1.413c-0.721,-0.027 -1.036,0.528 -1.173,1.071c-0.137,0.541 -0.132,1.149 -0.04,1.704c0.085,0.511 0.495,0.813 1.064,0.813c0.931,0.009 1.531,-0.665 1.499,-1.707z" id="svg_6" fill="#69747c" stroke="null"/>
    <path d="m14.935,4.344c0.205,-0.692 -0.355,-1.724 -1.056,-1.931c-0.375,-0.113 -0.993,0.289 -1.127,0.84c-0.097,0.413 -0.097,0.871 -0.043,1.296c0.061,0.52 0.389,0.833 0.92,0.795c0.611,0.003 1.129,-0.401 1.305,-1l0.001,0z" id="svg_5" fill="#69747c" stroke="null"/>
    <path d="m9.705,6.8c-0.237,0.396 -0.348,0.944 -0.309,1.405c0.045,0.5 0.48,0.683 1,0.573c0.953,-0.195 1.187,-0.9 0.599,-1.853c1.315,0.212 1.944,-0.251 1.841,-1.348c-0.049,-0.487 -0.68,-1.159 -1.133,-1.137c-0.544,0.017 -0.871,0.384 -0.929,0.884c-0.049,0.467 0.04,0.945 0.067,1.421c-0.393,-0.201 -0.887,-0.363 -1.135,0.055l-0.001,0z" id="svg_4" fill="#69747c" stroke="null"/>
   </svg>
  </g>
 </g>
</svg>