<?xml version="1.0" encoding="utf-8"?>
<!-- Generated by IcoMoon.io -->
<!DOCTYPE svg PUBLIC "-//W3C//DTD SVG 1.1//EN" "http://www.w3.org/Graphics/SVG/1.1/DTD/svg11.dtd">
<svg version="1.1" xmlns="http://www.w3.org/2000/svg" xmlns:xlink="http://www.w3.org/1999/xlink" width="32" height="32" viewBox="0 0 32 32">
<path d="M31.133 31.135c0.563-0.561 0.873-1.324 0.867-2.119l-0.084-9.587c-0.007-0.776-0.317-1.519-0.867-2.067l-16.496-16.496c-1.155-1.156-3.028-1.156-4.184 0l-9.503 9.503c-1.156 1.155-1.156 3.028 0 4.183l16.495 16.497c0.548 0.548 1.291 0.86 2.067 0.865l9.588 0.085c0.792 0.007 1.557-0.305 2.117-0.865zM19.676 26.353c-1.847-1.845-1.847-4.835-0.003-6.68 1.845-1.845 4.836-1.845 6.681 0 1.844 1.845 1.844 4.835 0 6.68-1.845 1.844-4.836 1.844-6.679 0z"></path>
</svg>
