<?xml version="1.0" encoding="utf-8"?>
<!-- Generated by IcoMoon.io -->
<!DOCTYPE svg PUBLIC "-//W3C//DTD SVG 1.1//EN" "http://www.w3.org/Graphics/SVG/1.1/DTD/svg11.dtd">
<svg version="1.1" xmlns="http://www.w3.org/2000/svg" xmlns:xlink="http://www.w3.org/1999/xlink" width="32" height="32" viewBox="0 0 32 32">
<path fill="#ffffff" d="M30.388 6.907c-0.873 0.387-1.791 0.665-2.737 0.829 1.004-0.755 1.751-1.801 2.135-3 0.020-0.057 0-0.12-0.047-0.157-0.045-0.037-0.112-0.043-0.164-0.012-1.131 0.671-2.355 1.143-3.64 1.405-1.139-1.181-2.731-1.859-4.376-1.859-3.349 0-6.073 2.724-6.073 6.073 0 0.405 0.039 0.805 0.117 1.196-4.639-0.285-8.977-2.513-11.927-6.129-0.029-0.039-0.075-0.059-0.123-0.053-0.048 0.003-0.091 0.031-0.113 0.071-0.539 0.923-0.824 1.98-0.824 3.055 0 1.861 0.847 3.603 2.287 4.751-0.74-0.089-1.465-0.324-2.119-0.687-0.044-0.025-0.049-0.024-0.093 0.001s-0.024 0.072-0.024 0.123v0.079c0 2.673 1.713 5.020 4.22 5.8-0.661 0.108-1.369 0.099-2.043-0.028-0.051-0.008-0.115 0.008-0.148 0.045-0.033 0.039-0.052 0.092-0.036 0.14 0.752 2.347 2.839 3.992 5.269 4.196-2.028 1.485-4.427 2.269-6.959 2.269-0.468 0-0.937-0.028-1.399-0.084-0.065-0.007-0.132 0.032-0.155 0.096-0.023 0.063 0.001 0.135 0.059 0.171 2.741 1.756 5.909 2.687 9.165 2.687 10.649 0 17.011-8.648 17.011-17.012 0-0.233-0.004-0.464-0.013-0.695 1.148-0.84 2.135-1.868 2.928-3.059 0.037-0.053 0.033-0.124-0.008-0.173-0.043-0.049-0.112-0.065-0.171-0.039z"></path>
</svg>
