<?xml version="1.0" encoding="utf-8"?>
<!-- Generated by IcoMoon.io -->
<!DOCTYPE svg PUBLIC "-//W3C//DTD SVG 1.1//EN" "http://www.w3.org/Graphics/SVG/1.1/DTD/svg11.dtd">
<svg version="1.1" xmlns="http://www.w3.org/2000/svg" xmlns:xlink="http://www.w3.org/1999/xlink" width="32" height="32" viewBox="0 0 32 32">
<path d="M18.851 18.273c-0.867-0.501-2.072-0.501-3.051-0.501h-3.216v6.627h2.951c1.092 0 2.487 0.077 3.428-0.584 0.863-0.583 1.353-1.727 1.353-2.812 0-1.012-0.6-2.221-1.465-2.729zM17.639 12.619c0.716-0.545 1.088-1.517 1.088-2.411 0-0.972-0.451-1.905-1.277-2.409-0.867-0.505-2.448-0.389-3.465-0.389h-1.4v5.832h1.853c1.055-0.001 2.297 0.077 3.201-0.623zM17.403 29.333h-11.048v-26.667h12.073c3.495 0 6.721 2.225 6.721 6.152 0 3.031-1.695 5.108-3.852 5.752v0.079c3.199 0.661 5.487 2.399 5.487 6.595 0.001 3.881-2.643 8.089-9.381 8.089z"></path>
</svg>
