<?xml version="1.0" encoding="utf-8"?>
<!-- Generated by IcoMoon.io -->
<!DOCTYPE svg PUBLIC "-//W3C//DTD SVG 1.1//EN" "http://www.w3.org/Graphics/SVG/1.1/DTD/svg11.dtd">
<svg version="1.1" xmlns="http://www.w3.org/2000/svg" xmlns:xlink="http://www.w3.org/1999/xlink" width="32" height="32" viewBox="0 0 32 32">
<path fill="#ffffff" d="M13.209 19.673c-0.707-0.317-1.416-0.544-2.025-0.928-2.020-1.272-2.921-4.115-2.176-6.669 0.648-2.147 2.209-3.409 4.352-3.443 1.479-0.024 2.957-0.001 4.439-0.003 2.417-0.005 3.985-1.509 4.097-3.945 0.033-0.795-0.016-1.591 0.025-2.383 0.032-0.611 0.421-0.952 1.019-0.969 0.603-0.017 1.057 0.335 1.052 0.923-0.012 1.417 0.060 2.875-0.241 4.243-0.592 2.693-2.54 4.141-5.809 4.584 0 0.308 0 0.631 0 0.949 0 5.697 0.001 11.396-0.003 17.091 0 1.088-0.369 1.461-1.405 1.453-0.956-0.007-1.349-0.381-1.353-1.34-0.009-2.273-0.003-4.547-0.003-6.82 0-0.219 0-0.435 0-0.652-0.047-0.021-0.092-0.040-0.137-0.061-0.115 0.216-0.239 0.428-0.341 0.651-1.088 2.3-2.168 4.601-3.259 6.901-0.549 1.16-1.713 1.668-2.944 1.287-0.591-0.181-0.564-0.595-0.341-1.043 0.611-1.223 1.237-2.44 1.855-3.661 0.787-1.561 2.477-4.764 3.2-6.164zM14.984 11.217c-1.815 0.156-2.703 0.041-3.36 1-0.792 1.153-0.571 2.473 0.192 3.645 0.584 0.897 1.609 1.084 3.187 1.163 0.028-2.501-0.019-3.069-0.019-5.808z"></path>
<path fill="#ffffff" d="M18.644 4.465c0.005 1.723-1.404 3.104-3.151 3.093-1.74-0.009-3.14-1.405-3.131-3.121 0.008-1.656 1.42-3.047 3.116-3.071 1.716-0.023 3.164 1.393 3.165 3.099z"></path>
</svg>
